<svg width="321.792529296875px" height="122.021240234375px" xmlns="http://www.w3.org/2000/svg" viewBox="89.1037353515625 13.9893798828125 321.792529296875 122.021240234375" style="background: none;" preserveAspectRatio="xMidYMid"><defs><filter id="editing-hole" x="-100%" y="-100%" width="300%" height="300%"><feFlood flood-color="#bfc1c5" result="black"></feFlood><feMorphology operator="dilate" radius="2" in="SourceGraphic" result="erode"></feMorphology><feGaussianBlur in="erode" stdDeviation="4" result="blur"></feGaussianBlur><feOffset in="blur" dx="2" dy="2" result="offset"></feOffset><feComposite operator="atop" in="offset" in2="black" result="merge"></feComposite><feComposite operator="in" in="merge" in2="SourceGraphic" result="inner-shadow"></feComposite></filter></defs><g filter="url(#editing-hole)"><g transform="translate(138.66999876499176, 98.9921875)"><path d="M34.50-13.25L34.50-13.25L34.50-13.25Q36.16-12.03 36.16-9.44L36.16-9.44L36.16-9.44Q36.16-6.85 35.04-5.02L35.04-5.02L35.04-5.02Q33.92-3.20 31.74-1.79L31.74-1.79L31.74-1.79Q27.07 1.22 18.91 1.22L18.91 1.22L18.91 1.22Q10.75 1.22 6.30-3.04L6.30-3.04L6.30-3.04Q1.86-7.30 1.86-14.85L1.86-14.85L1.86-14.85Q1.86-25.54 7.42-33.66L7.42-33.66L7.42-33.66Q11.65-39.68 19.20-42.24L19.20-42.24L19.20-42.24Q23.10-43.52 26.94-43.52L26.94-43.52L26.94-43.52Q30.78-43.52 33.15-43.01L33.15-43.01L33.15-43.01Q35.52-42.50 37.31-41.47L37.31-41.47L37.31-41.47Q41.22-39.23 41.22-35.65L41.22-35.65L41.22-35.65Q41.22-32.38 38.14-29.95L38.14-29.95L38.14-29.95Q35.33-27.78 33.02-27.78L33.02-27.78L33.02-27.78Q30.72-27.78 29.76-28.10L29.76-28.10L29.76-28.10Q30.02-30.40 30.02-31.90L30.02-31.90L30.02-31.90Q30.02-33.41 29.95-34.50L29.95-34.50L29.95-34.50Q29.89-35.58 29.57-36.61L29.57-36.61L29.57-36.61Q28.93-38.98 26.98-38.98L26.98-38.98L26.98-38.98Q25.02-38.98 23.07-37.15L23.07-37.15L23.07-37.15Q21.12-35.33 19.46-32.26L19.46-32.26L19.46-32.26Q15.68-25.28 15.68-17.02L15.68-17.02L15.68-17.02Q15.68-13.06 17.92-10.78L17.92-10.78L17.92-10.78Q20.16-8.51 24.96-8.51L24.96-8.51L24.96-8.51Q28.54-8.51 31.94-10.88L31.94-10.88L31.94-10.88Q33.41-11.90 34.50-13.25ZM73.66-7.10L73.66-7.10L73.66-7.10Q73.66-4.29 76.54-3.46L76.54-3.46L76.54-3.46Q75.84-1.09 73.09 0.19L73.09 0.19L73.09 0.19Q70.78 1.28 68.26 1.28L68.26 1.28L68.26 1.28Q65.73 1.28 64.42 0.61L64.42 0.61L64.42 0.61Q63.10-0.06 62.40-1.15L62.40-1.15L62.40-1.15Q61.25-2.82 61.25-5.95L61.25-5.95L61.25-5.95Q61.25-7.81 62.27-12.93L62.27-12.93L63.17-17.79L63.17-17.79Q64.26-23.36 64.26-25.41L64.26-25.41L64.26-25.41Q64.26-28.99 62.27-28.99L62.27-28.99L62.27-28.99Q59.78-28.99 58.18-25.34L58.18-25.34L58.18-25.34Q57.54-23.94 57.09-21.82L57.09-21.82L52.74 0L39.87 1.28L48.90-44.80L61.76-46.08L61.25-43.52L61.25-43.52Q59.46-33.66 57.92-30.34L57.92-30.34L57.92-30.34Q61.50-33.92 68.10-33.92L68.10-33.92L68.10-33.92Q75.07-33.92 76.35-29.31L76.35-29.31L76.35-29.31Q76.80-27.84 76.80-26.56L76.80-26.56L76.80-26.56Q76.80-25.28 76.70-24.29L76.70-24.29L76.70-24.29Q76.61-23.30 76.29-21.50L76.29-21.50L75.46-16.90L73.98-9.66L73.98-9.66Q73.66-8.19 73.66-7.10ZM84.51-1.92L84.51-1.92L84.51-1.92Q83.01-3.58 82.34-6.21L82.34-6.21L82.34-6.21Q81.66-8.83 81.66-13.12L81.66-13.12L81.66-13.12Q81.66-17.41 83.14-21.31L83.14-21.31L83.14-21.31Q84.61-25.22 87.30-28.03L87.30-28.03L87.30-28.03Q92.80-33.92 101.89-33.92L101.89-33.92L101.89-33.92Q105.15-33.92 107.52-32.83L107.52-32.83L118.46-33.92L113.73-8.96L113.73-8.96Q113.54-8.19 113.54-6.78L113.54-6.78L113.54-6.78Q113.54-5.38 114.40-4.48L114.40-4.48L114.40-4.48Q115.26-3.58 116.54-3.46L116.54-3.46L116.54-3.46Q115.90-1.28 113.57 0L113.57 0L113.57 0Q111.23 1.28 108.61 1.28L108.61 1.28L108.61 1.28Q105.98 1.28 104.22 0.29L104.22 0.29L104.22 0.29Q102.46-0.70 101.95-2.37L101.95-2.37L101.95-2.37Q100.93-0.77 98.75 0.26L98.75 0.26L98.75 0.26Q96.58 1.28 93.66 1.28L93.66 1.28L93.66 1.28Q90.75 1.28 88.38 0.51L88.38 0.51L88.38 0.51Q86.02-0.26 84.51-1.92ZM98.02-27.90L98.02-27.90L98.02-27.90Q97.28-26.75 96.64-24.80L96.64-24.80L96.64-24.80Q96-22.85 94.94-17.63L94.94-17.63L94.94-17.63Q93.89-12.42 93.89-8.70L93.89-8.70L93.89-8.70Q93.89-4.99 94.46-3.90L94.46-3.90L94.46-3.90Q95.04-2.82 96.06-2.82L96.06-2.82L96.06-2.82Q98.11-2.82 99.62-4.77L99.62-4.77L99.62-4.77Q101.12-6.72 101.70-10.18L101.70-10.18L105.09-28.93L105.09-28.93Q103.74-30.08 102.18-30.08L102.18-30.08L102.18-30.08Q100.61-30.08 99.68-29.57L99.68-29.57L99.68-29.57Q98.75-29.06 98.02-27.90ZM122.94-6.40L122.94-6.40L122.94-6.40Q122.94-8.13 123.84-12.48L123.84-12.48L127.23-29.76L123.46-29.76L123.71-31.68L123.71-31.68Q131.39-33.98 138.82-39.62L138.82-39.62L141.89-39.62L140.35-32.64L145.34-32.64L144.77-29.76L139.84-29.76L136.58-12.48L136.58-12.48Q135.74-8.51 135.74-7.17L135.74-7.17L135.74-7.17Q135.74-4.10 138.43-3.46L138.43-3.46L138.43-3.46Q137.79-1.28 135.49 0L135.49 0L135.49 0Q133.18 1.28 129.92 1.28L129.92 1.28L129.92 1.28Q126.66 1.28 124.80-0.77L124.80-0.77L124.80-0.77Q122.94-2.82 122.94-6.40ZM146.05-6.40L146.05-6.40L146.05-6.40Q146.05-8.13 146.94-12.48L146.94-12.48L150.34-29.76L146.56-29.76L146.82-31.68L146.82-31.68Q154.50-33.98 161.92-39.62L161.92-39.62L164.99-39.62L163.46-32.64L168.45-32.64L167.87-29.76L162.94-29.76L159.68-12.48L159.68-12.48Q158.85-8.51 158.85-7.17L158.85-7.17L158.85-7.17Q158.85-4.10 161.54-3.46L161.54-3.46L161.54-3.46Q160.90-1.28 158.59 0L158.59 0L158.59 0Q156.29 1.28 153.02 1.28L153.02 1.28L153.02 1.28Q149.76 1.28 147.90-0.77L147.90-0.77L147.90-0.77Q146.05-2.82 146.05-6.40ZM183.49-3.52L183.49-3.52L183.49-3.52Q181.50 1.28 175.17 1.28L175.17 1.28L175.17 1.28Q171.90 1.28 169.86-0.96L169.86-0.96L169.86-0.96Q168.13-2.94 168.13-4.93L168.13-4.93L168.13-4.93Q168.13-10.11 170.50-20.22L170.50-20.22L172.86-32.64L185.86-33.92L181.95-13.70L181.95-13.70Q180.86-8.96 180.86-7.30L180.86-7.30L180.86-7.30Q180.86-3.65 183.49-3.52ZM174.02-41.54L174.02-41.54L174.02-41.54Q174.02-44.03 176.10-45.38L176.10-45.38L176.10-45.38Q178.18-46.72 181.18-46.72L181.18-46.72L181.18-46.72Q184.19-46.72 186.02-45.38L186.02-45.38L186.02-45.38Q187.84-44.03 187.84-41.54L187.84-41.54L187.84-41.54Q187.84-39.04 185.82-37.76L185.82-37.76L185.82-37.76Q183.81-36.48 180.80-36.48L180.80-36.48L180.80-36.48Q177.79-36.48 175.90-37.76L175.90-37.76L175.90-37.76Q174.02-39.04 174.02-41.54ZM214.85-10.82L214.85-10.82L214.85-10.82Q216.45-9.73 216.45-7.33L216.45-7.33L216.45-7.33Q216.45-4.93 215.23-3.39L215.23-3.39L215.23-3.39Q214.02-1.86 212.03-0.83L212.03-0.83L212.03-0.83Q207.94 1.28 203.52 1.28L203.52 1.28L203.52 1.28Q199.10 1.28 196.51 0.32L196.51 0.32L196.51 0.32Q193.92-0.64 192.19-2.43L192.19-2.43L192.19-2.43Q188.80-5.82 188.80-12.03L188.80-12.03L188.80-12.03Q188.80-21.70 194.05-27.58L194.05-27.58L194.05-27.58Q199.68-33.92 209.47-33.92L209.47-33.92L209.47-33.92Q215.55-33.92 218.56-31.36L218.56-31.36L218.56-31.36Q220.80-29.44 220.80-26.30L220.80-26.30L220.80-26.30Q220.80-15.04 201.34-15.04L201.34-15.04L201.34-15.04Q201.09-13.38 201.09-11.97L201.09-11.97L201.09-11.97Q201.09-9.02 202.40-7.90L202.40-7.90L202.40-7.90Q203.71-6.78 206.14-6.78L206.14-6.78L206.14-6.78Q208.58-6.78 211.17-7.90L211.17-7.90L211.17-7.90Q213.76-9.02 214.85-10.82ZM201.79-17.79L201.79-17.79L201.79-17.79Q206.34-17.79 208.96-20.61L208.96-20.61L208.96-20.61Q211.58-23.30 211.58-27.58L211.58-27.58L211.58-27.58Q211.58-29.06 211.04-29.86L211.04-29.86L211.04-29.86Q210.50-30.66 209.41-30.66L209.41-30.66L209.41-30.66Q208.32-30.66 207.39-30.24L207.39-30.24L207.39-30.24Q206.46-29.82 205.50-28.42L205.50-28.42L205.50-28.42Q203.14-25.22 201.79-17.79Z" fill="#9b4dca"></path></g></g><style>text {
  font-size: 64px;
  font-family: Arial Black;
  dominant-baseline: central;
  text-anchor: middle;
}</style></svg>